<mxfile host="app.diagrams.net" modified="2024-01-08T08:33:02.818Z" agent="Mozilla/5.0 (Macintosh; Intel Mac OS X 10_15_7) AppleWebKit/537.36 (KHTML, like Gecko) Chrome/120.0.0.0 Safari/537.36" etag="7VVS8urPBChlA3klInJi" version="22.1.16" type="github">
  <diagram name="第 1 页" id="wux_IqHQ8Wf4AbaftWKg">
    <mxGraphModel dx="1080" dy="684" grid="1" gridSize="10" guides="1" tooltips="1" connect="1" arrows="1" fold="1" page="1" pageScale="1" pageWidth="1169" pageHeight="827" math="0" shadow="0">
      <root>
        <mxCell id="0" />
        <mxCell id="1" parent="0" />
        <mxCell id="bOmouLmQHQ1E_hBL-qIi-29" style="edgeStyle=orthogonalEdgeStyle;rounded=0;orthogonalLoop=1;jettySize=auto;html=1;exitX=1;exitY=0.5;exitDx=0;exitDy=0;dashed=1;" edge="1" parent="1" source="bOmouLmQHQ1E_hBL-qIi-1">
          <mxGeometry relative="1" as="geometry">
            <mxPoint x="390" y="100" as="targetPoint" />
          </mxGeometry>
        </mxCell>
        <mxCell id="bOmouLmQHQ1E_hBL-qIi-1" value="c/c++ source files" style="rounded=1;whiteSpace=wrap;html=1;" vertex="1" parent="1">
          <mxGeometry x="230" y="150" width="120" height="60" as="geometry" />
        </mxCell>
        <mxCell id="bOmouLmQHQ1E_hBL-qIi-5" style="edgeStyle=orthogonalEdgeStyle;rounded=0;orthogonalLoop=1;jettySize=auto;html=1;exitX=1;exitY=0.5;exitDx=0;exitDy=0;" edge="1" parent="1" source="bOmouLmQHQ1E_hBL-qIi-3" target="bOmouLmQHQ1E_hBL-qIi-4">
          <mxGeometry relative="1" as="geometry" />
        </mxCell>
        <mxCell id="bOmouLmQHQ1E_hBL-qIi-6" value="cmake" style="edgeLabel;html=1;align=center;verticalAlign=middle;resizable=0;points=[];" vertex="1" connectable="0" parent="bOmouLmQHQ1E_hBL-qIi-5">
          <mxGeometry x="-0.0857" y="1" relative="1" as="geometry">
            <mxPoint as="offset" />
          </mxGeometry>
        </mxCell>
        <mxCell id="bOmouLmQHQ1E_hBL-qIi-3" value="CMakeLists.txt" style="rounded=1;whiteSpace=wrap;html=1;" vertex="1" parent="1">
          <mxGeometry x="40" y="71.5" width="120" height="60" as="geometry" />
        </mxCell>
        <mxCell id="bOmouLmQHQ1E_hBL-qIi-8" style="edgeStyle=orthogonalEdgeStyle;rounded=0;orthogonalLoop=1;jettySize=auto;html=1;exitX=1;exitY=0.5;exitDx=0;exitDy=0;" edge="1" parent="1" source="bOmouLmQHQ1E_hBL-qIi-4" target="bOmouLmQHQ1E_hBL-qIi-21">
          <mxGeometry relative="1" as="geometry">
            <mxPoint x="530" y="60" as="targetPoint" />
          </mxGeometry>
        </mxCell>
        <mxCell id="bOmouLmQHQ1E_hBL-qIi-30" value="make" style="edgeLabel;html=1;align=center;verticalAlign=middle;resizable=0;points=[];" vertex="1" connectable="0" parent="bOmouLmQHQ1E_hBL-qIi-8">
          <mxGeometry x="-0.2333" relative="1" as="geometry">
            <mxPoint y="1" as="offset" />
          </mxGeometry>
        </mxCell>
        <mxCell id="bOmouLmQHQ1E_hBL-qIi-4" value="makefile" style="rounded=1;whiteSpace=wrap;html=1;" vertex="1" parent="1">
          <mxGeometry x="230" y="71.5" width="120" height="60" as="geometry" />
        </mxCell>
        <mxCell id="bOmouLmQHQ1E_hBL-qIi-16" value="" style="group" vertex="1" connectable="0" parent="1">
          <mxGeometry x="825" y="71.5" width="80" height="60" as="geometry" />
        </mxCell>
        <mxCell id="bOmouLmQHQ1E_hBL-qIi-7" value="&lt;div&gt;&lt;br&gt;&lt;/div&gt;" style="rounded=1;whiteSpace=wrap;html=1;" vertex="1" parent="bOmouLmQHQ1E_hBL-qIi-16">
          <mxGeometry width="80" height="60" as="geometry" />
        </mxCell>
        <mxCell id="bOmouLmQHQ1E_hBL-qIi-12" value="可执行文件" style="rounded=0;whiteSpace=wrap;html=1;" vertex="1" parent="bOmouLmQHQ1E_hBL-qIi-16">
          <mxGeometry y="10" width="80" height="20" as="geometry" />
        </mxCell>
        <mxCell id="bOmouLmQHQ1E_hBL-qIi-14" value="动态库/静态库" style="rounded=0;whiteSpace=wrap;html=1;" vertex="1" parent="bOmouLmQHQ1E_hBL-qIi-16">
          <mxGeometry y="30" width="80" height="20" as="geometry" />
        </mxCell>
        <mxCell id="bOmouLmQHQ1E_hBL-qIi-20" value="" style="swimlane;childLayout=stackLayout;horizontal=1;fillColor=none;horizontalStack=1;resizeParent=1;resizeParentMax=0;resizeLast=0;collapsible=0;strokeColor=none;stackBorder=10;stackSpacing=-12;resizable=1;align=center;points=[];whiteSpace=wrap;html=1;" vertex="1" parent="1">
          <mxGeometry x="410" y="40" width="384" height="100" as="geometry" />
        </mxCell>
        <mxCell id="bOmouLmQHQ1E_hBL-qIi-21" value="预处理" style="shape=step;perimeter=stepPerimeter;fixedSize=1;points=[];whiteSpace=wrap;html=1;" vertex="1" parent="bOmouLmQHQ1E_hBL-qIi-20">
          <mxGeometry x="10" y="33" width="100" height="57" as="geometry" />
        </mxCell>
        <mxCell id="bOmouLmQHQ1E_hBL-qIi-22" value="编译" style="shape=step;perimeter=stepPerimeter;fixedSize=1;points=[];whiteSpace=wrap;html=1;" vertex="1" parent="bOmouLmQHQ1E_hBL-qIi-20">
          <mxGeometry x="98" y="33" width="100" height="57" as="geometry" />
        </mxCell>
        <mxCell id="bOmouLmQHQ1E_hBL-qIi-23" value="汇编" style="shape=step;perimeter=stepPerimeter;fixedSize=1;points=[];whiteSpace=wrap;html=1;" vertex="1" parent="bOmouLmQHQ1E_hBL-qIi-20">
          <mxGeometry x="186" y="33" width="100" height="57" as="geometry" />
        </mxCell>
        <mxCell id="bOmouLmQHQ1E_hBL-qIi-24" value="链接" style="shape=step;perimeter=stepPerimeter;fixedSize=1;points=[];whiteSpace=wrap;html=1;" vertex="1" parent="bOmouLmQHQ1E_hBL-qIi-20">
          <mxGeometry x="274" y="33" width="100" height="57" as="geometry" />
        </mxCell>
        <mxCell id="bOmouLmQHQ1E_hBL-qIi-32" style="edgeStyle=orthogonalEdgeStyle;rounded=0;orthogonalLoop=1;jettySize=auto;html=1;exitX=0;exitY=0;exitDx=0;exitDy=0;entryX=1.001;entryY=0.506;entryDx=0;entryDy=0;entryPerimeter=0;startArrow=classic;startFill=1;endArrow=none;endFill=0;" edge="1" parent="1" source="bOmouLmQHQ1E_hBL-qIi-14" target="bOmouLmQHQ1E_hBL-qIi-24">
          <mxGeometry relative="1" as="geometry">
            <Array as="points">
              <mxPoint x="817" y="102" />
            </Array>
          </mxGeometry>
        </mxCell>
      </root>
    </mxGraphModel>
  </diagram>
</mxfile>
